# AST/ASF file generated using VICON BodyLanguage
# -----------------------------------------------
:version 1.10
:name VICON
:units
  mass 1.0
  length 0.45
  angle deg
:documentation
   .ast/.asf automatically generated from VICON data using
   VICON BodyBuilder and BodyLanguage model FoxedUp or BRILLIANT.MOD
:root
   order TX TY TZ RX RY RZ
   axis XYZ
   position 0 0 0  
   orientation 0 0 0 
:bonedata
  begin
     id 1 
     name lhipjoint
     direction 0.560651 -0.75055 0.34978 
     length 2.44936 
     axis 0 0 0  XYZ
  end
  begin
     id 2 
     name lfemur
     direction 0.34202 -0.939693 0  
     length 7.42139  
     axis 0 0 20  XYZ
    dof rx ry rz
    limits (-160.0 20.0)
           (-70.0 70.0)
           (-60.0 70.0)
  end
  begin
     id 3 
     name ltibia
     direction 0.34202 -0.939693 0   
     length 7.75674   
     axis 0 0 20   XYZ
    dof rx
    limits (-10.0 170.0)
  end
  begin
     id 4 
     name lfoot
     direction 0.0925879 -0.254383 0.962661   
     length 2.38688   
     axis -90 7.62852e-016 20   XYZ
    dof rx rz
    limits (-45.0 90.0)
           (-70.0 20.0)
  end
  begin
     id 5 
     name ltoes
     direction 1.53567e-011 -4.21973e-011 1   
     length 1.19228   
     axis -90 7.62852e-016 20   XYZ
    dof rx
    limits (-90.0 20.0)
  end
  begin
     id 6 
     name rhipjoint
     direction -0.540087 -0.762838 0.355506   
     length 2.4099  
     axis 0 0 0  XYZ 
  end
  begin
     id 7 
     name rfemur
     direction -0.34202 -0.939693 0   
     length 7.70794   
     axis 0 0 -20   XYZ
    dof rx ry rz
    limits (-160.0 20.0)
           (-70.0 70.0)
           (-70.0 60.0)
  end
  begin
     id 8 
     name rtibia
     direction -0.34202 -0.939693 0   
     length 7.66106   
     axis 0 0 -20   XYZ
    dof rx
    limits (-10.0 170.0)
 end
 begin
     id 9 
     name rfoot
     direction -0.0830975 -0.228308 0.970036   
     length 2.4989  
     axis -90 -7.62852e-016 -20   XYZ
    dof rx rz
    limits (-45.0 90.0)
           (-20.0 70.0)
  end
  begin
     id 10 
     name rtoes
     direction -1.53517e-011 -4.21842e-011 1   
     length 1.2498   
     axis -90 -7.62852e-016 -20   XYZ
    dof rx
    limits (-90.0 20.0)
  end
  begin
     id 11 
     name lowerback
     direction 0.0266356 0.99402 -0.105896   
     length 2.1545   
     axis 0 0 0   XYZ
    dof rx ry rz
    limits (-20.0 45.0)
           (-30.0 30.0)
           (-30.0 30.0)
  end
  begin
     id 12 
     name upperback
     direction 0.0130547 0.999192 0.0380027   
     length 2.1434   
     axis 0 0 0   XYZ
    dof rx ry rz
    limits (-20.0 45.0)
           (-30.0 30.0)
           (-30.0 30.0)
  end
  begin
     id 13 
     name thorax
     direction 0.000590299 0.996288 0.0860764   
     length 2.19049   
     axis 0 0 0   XYZ
    dof rx ry rz
    limits (-20.0 45.0)
           (-30.0 30.0)
           (-30.0 30.0)
  end
  begin
     id 14 
     name lowerneck
     direction -0.0432125 0.978219 0.203028   
     length 1.62441   
     axis 0 0 0   XYZ
    dof rx ry rz
    limits (-20.0 45.0)
           (-30.0 30.0)
           (-30.0 30.0)
  end
  begin
     id 15 
     name upperneck
     direction -0.0192309 0.991699 -0.127138   
     length 1.66666   
     axis 0 0 0   XYZ
    dof rx ry rz
    limits (-20.0 45.0)
           (-30.0 30.0)
           (-30.0 30.0)
  end
  begin
     id 16
     name head
     direction -0.00434499 0.997882 -0.0649107  
     length 1.67142  
     axis 0 0 0   XYZ
    dof rx ry rz
    limits (-20.0 45.0)
           (-30.0 30.0)
           (-30.0 30.0)
  end
  begin
     id 17 
     name lclavicle
     direction 0.970351 0.240904 -0.0196058  
     length 4.04862  
     axis 0 0 0   XYZ
    dof ry rz
    limits (-20.0 10.0)
           (0.0 20.0)
  end
  begin
     id 18 
     name lhumerus
     direction 1 -4.4896e-011 -1.40911e-018   
     length 5.58345   
     axis 180 -30 -90   XYZ
    dof rx ry rz
    limits (-60.0 90.0)
           (-90.0 90.0)
           (-90.0 90.0)
  end
  begin
     id 19
     name lradius
     direction 1 -4.48968e-011 5.88912e-028   
     length 3.71087   
     axis 180 -30 -90   XYZ
    dof rx
    limits (-10.0 170.0)
  end
  begin
     id 20
     name lwrist
     direction 1 -4.48955e-011 -8.83775e-028   
     length 1.85544   
     axis 5.52448e-016 90 90   XYZ
    dof ry
    limits (-180.0 0.0)
 end
  begin
     id 21 
     name lhand
     direction 1 -4.49035e-011 -1.76755e-027   
     length 0.562322   
     axis 1.12785e-015 90 90   XYZ
    dof rx rz
    limits (-90.0 90.0)
           (-45.0 45.0)
  end
  begin
     id 22 
     name lfingers
     direction 1 -4.48824e-011 -3.5351e-027   
     length 0.453359   
     axis 2.2557e-015 90 90   XYZ
    dof rx
    limits (0.0 90.0)
  end
  begin
     id 23
     name lthumb
     direction 0.707107 -6.34888e-011 0.707107   
     length 0.650935   
     axis -90 45 2.85299e-015   XYZ
    dof rx rz
    limits (-45.0 45.0)
           (-45.0 45.0)
  end
  begin
     id 24 
     name rclavicle
     direction -0.96165 0.268562 -0.0557131   
     length 4.05446  
     axis 0 0 0   XYZ 
    dof ry rz
    limits (-10.0 20.0)
           (-20.0 0.0)
  end
  begin
     id 25 
     name rhumerus
     direction -1 -4.48957e-011 -3.36329e-027  
     length 5.20357   
     axis 180 30 90   XYZ
    dof rx ry rz
    limits (-90.0 60.0)
           (-90.0 90.0)
           (-90.0 90.0)
  end
  begin
     id 26 
     name rradius
     direction -1 -4.48974e-011 4.51441e-027   
     length 3.64937   
     axis 180 30 90   XYZ
    dof rx
    limits (-10.0 170.0)
  end
  begin
     id 27 
     name rwrist
     direction -1 -4.4896e-011 -8.83775e-028   
     length 1.82468   
     axis 5.52448e-016 -90 -90   XYZ
    dof ry
    limits (-180.0 0.0)
  end
  begin
     id 28
     name rhand
     direction -1 -4.48996e-011 -1.76755e-027   
     length 0.617996   
     axis 1.12785e-015 -90 -90   XYZ
    dof rx rz
    limits (-90.0 90.0)
           (-45.0 45.0)
  end
  begin
     id 29
     name rfingers
     direction -1 -4.48957e-011 -3.5351e-027   
     length 0.498244   
     axis 2.2557e-015 -90 -90   XYZ
    dof rx
    limits (0.0 90.0)
  end
  begin
     id 30
     name rthumb
     direction -0.707107 -6.34931e-011 0.707107   
     length 0.715382   
     axis -90 -45 -2.85299e-015   XYZ
    dof rx rz
    limits (-45.0 45.0)
           (-45.0 45.0)
  end
:hierarchy
  begin
    root lhipjoint rhipjoint lowerback
    lhipjoint lfemur
    lfemur ltibia
    ltibia lfoot
    lfoot ltoes
    rhipjoint rfemur
    rfemur rtibia
    rtibia rfoot
    rfoot rtoes
    lowerback upperback
    upperback thorax
    thorax lowerneck lclavicle rclavicle
    lowerneck upperneck
    upperneck head
    lclavicle lhumerus
    lhumerus lradius
    lradius lwrist
    lwrist lhand lthumb
    lhand lfingers
    rclavicle rhumerus
    rhumerus rradius
    rradius rwrist
    rwrist rhand rthumb
    rhand rfingers
  end

#!OML:ASF H:\ManfredETheater\Project 1\Capture day 2\Session 1\Male1.ASF
:FULLY-SPECIFIED
:DEGREES
52
root -1.14036 16.221 -18.2246 4.01446 1.71701 3.43756
lowerback 20.5784 0.494678 -2.02661
upperback 2.22283 0.286323 0.909297
thorax -9.11778 0.231438 2.07136
lowerneck -23.5074 0.637869 -0.492003
upperneck 11.4728 1.83026 -4.69395
head 7.37739 0.374317 -1.2504
rclavicle -1.05356e-014 -2.38542e-015
rhumerus -48.824 5.91872 -82.7651
rradius 74.7465
rwrist -11.1223
rhand -36.0985 1.78115
rfingers 7.12502
rthumb -9.20481 -27.9979
lclavicle -1.05356e-014 -2.38542e-015
lhumerus -31.818 -14.3042 95.5489
lradius 98.6141
lwrist 16.2603
lhand -22.7961 -5.53596
lfingers 7.12502
lthumb 3.64001 24.4127
rfemur -37.5028 -16.089 11.4238
rtibia 93.9496
rfoot -17.322 -2.4841
rtoes -16.7636
lfemur -28.6538 1.58445 -25.5281
ltibia 68.4743
lfoot -24.9981 -2.05034
ltoes -11.684
53
root -1.10458 16.2478 -17.7229 4.0481 0.990358 4.03945
lowerback 21.2021 0.551318 -2.68152
upperback 2.57687 0.201375 0.93549
thorax -9.06236 0.210462 2.50065
lowerneck -23.4787 0.91487 -0.515922
upperneck 11.1597 2.22766 -4.88341
head 7.28125 0.550673 -1.2572
rclavicle -1.59028e-015 -7.95139e-016
rhumerus -48.2575 7.23593 -82.005
rradius 75.3748
rwrist -9.17537
rhand -35.899 2.84793
rfingers 7.12502
rthumb -9.01238 -26.9396
lclavicle -1.59028e-015 -7.95139e-016
lhumerus -30.0123 -15.304 94.5259
lradius 101.012
lwrist 18.062
lhand -22.5768 -5.50924
lfingers 7.12502
lthumb 3.8518 24.4357
rfemur -41.1127 -15.4349 11.8448
rtibia 91.6921
rfoot -18.5161 -1.80454
rtoes -19.2352
lfemur -27.4329 1.84728 -26.0953
ltibia 69.5612
lfoot -23.1721 -2.87474
ltoes -15.9213
54
root -1.07109 16.299 -17.2256 4.24075 0.320808 4.25773
lowerback 21.8653 0.569557 -2.91194
upperback 2.90305 0.165441 1.0397
thorax -9.0568 0.198767 2.76035
lowerneck -23.2824 1.12843 -0.642826
upperneck 10.6577 2.54861 -5.02439
head 7.09279 0.698463 -1.24105
rclavicle -1.19271e-014 5.56597e-015
rhumerus -47.3978 8.31177 -81.1812
rradius 75.9609
rwrist -6.90562
rhand -35.3229 3.40753
rfingers 7.12502
rthumb -8.45643 -26.4032
lclavicle -1.19271e-014 5.56597e-015
lhumerus -28.3046 -16.0451 93.2972
lradius 103.574
lwrist 19.2759
lhand -21.9167 -5.42769
lfingers 7.12502
lthumb 4.48923 24.5047
rfemur -44.4827 -14.5314 12.74
rtibia 88.7263
rfoot -19.3633 -1.1551
rtoes -19.6053
lfemur -26.8374 2.11787 -26.1301
ltibia 70.9688
lfoot -20.1913 -4.42684
ltoes -20.337
55
root -1.03942 16.3646 -16.7268 4.61201 -0.485197 4.2941
lowerback 22.3964 0.61895 -2.96237
upperback 3.21793 0.211261 1.11674
thorax -8.99523 0.217466 2.86275
lowerneck -22.9773 1.32027 -0.707416
upperneck 10.1577 2.82038 -5.19257
head 6.88881 0.826119 -1.25113
rclavicle -1.90833e-014 -1.59028e-015
rhumerus -46.1503 9.23959 -80.4064
rradius 76.3389
rwrist -5.02179
rhand -35.4307 3.66251
rfingers 7.12502
rthumb -8.56044 -26.144
lclavicle -1.90833e-014 -1.59028e-015
lhumerus -26.8176 -16.4008 91.8402
lradius 106.32
lwrist 19.3747
lhand -20.6719 -5.19124
lfingers 7.12502
lthumb 5.69115 24.7123
rfemur -47.6044 -13.3012 13.7855
rtibia 85.1672
rfoot -19.9395 -0.580865
rtoes -20.1641
lfemur -26.9587 2.43615 -25.8688
ltibia 72.6139
lfoot -15.9025 -6.60914
ltoes -22.8956
56
root -1.00569 16.4341 -16.2316 5.00011 -1.31633 4.25886
lowerback 22.9275 0.650501 -2.87334
upperback 3.6063 0.261426 1.13716
thorax -8.84963 0.229822 2.82054
lowerneck -22.7348 1.50474 -0.747848
upperneck 9.84577 3.07983 -5.33171
head 6.75701 0.947462 -1.25819
rclavicle 1.31198e-014 3.18055e-015
rhumerus -44.4258 10.1162 -79.6996
rradius 76.5059
rwrist -3.72903
rhand -35.9437 3.54022
rfingers 7.12502
rthumb -9.05549 -26.2454
lclavicle 1.31198e-014 3.18055e-015
lhumerus -25.4639 -16.3808 90.1659
lradius 109.088
lwrist 18.02
lhand -19.7813 -4.93175
lfingers 7.12502
lthumb 6.55093 24.9469
rfemur -50.2889 -12.1105 14.7725
rtibia 81.1459
rfoot -20.348 0.0160296
rtoes -21.2472
lfemur -27.6051 2.7026 -25.4727
ltibia 74.4045
lfoot -10.547 -8.79653
ltoes -23.6931
57
root -0.975627 16.4825 -15.7454 5.26354 -2.04346 4.18626
lowerback 23.6392 0.654634 -2.70875
upperback 4.07601 0.285864 1.1111
thorax -8.70372 0.226235 2.69165
lowerneck -22.5555 1.62935 -0.71448
upperneck 9.7632 3.25213 -5.48215
head 6.7101 1.02265 -1.29199
rclavicle 3.97569e-016 7.95139e-016
rhumerus -42.2903 10.9113 -78.9975
rradius 76.5359
rwrist -3.57067
rhand -36.3631 3.138
rfingers 7.12502
rthumb -9.46018 -26.6297
lclavicle 3.97569e-016 7.95139e-016
lhumerus -24.3256 -16.0509 88.3293
lradius 111.722
lwrist 15.4057
lhand -19.4203 -4.93188
lfingers 7.12502
lthumb 6.89939 24.9357
rfemur -52.4404 -11.2012 15.6947
rtibia 76.8834
rfoot -20.731 0.358471
rtoes -23.1347
lfemur -28.3039 2.89139 -25.0018
ltibia 76.254
lfoot -6.02251 -10.8135
ltoes -21.4038
58
root -0.947487 16.5186 -15.263 5.52523 -2.73766 4.10591
lowerback 24.4186 0.683013 -2.52192
upperback 4.54777 0.344508 1.06246
thorax -8.5882 0.239112 2.51433
lowerneck -22.367 1.66422 -0.811737
upperneck 9.8655 3.33411 -5.51218
head 6.71544 1.05586 -1.27677
rclavicle 8.74653e-015 3.18055e-015
rhumerus -39.9242 11.6299 -78.242
rradius 76.426
rwrist -4.12478
rhand -36.9578 2.47857
rfingers 7.12502
rthumb -10.034 -27.2622
lclavicle 8.74653e-015 3.18055e-015
lhumerus -23.4279 -15.4631 86.4015
lradius 114.063
lwrist 12.2099
lhand -19.8642 -5.45873
lfingers 7.12502
lthumb 6.47093 24.4224
rfemur -54.1959 -10.4463 16.5653
rtibia 72.4605
rfoot -20.5151 1.35887
rtoes -23.0121
lfemur -29.1532 3.11328 -24.5683
ltibia 78.2198
lfoot -3.96059 -12.2849
ltoes -16.767
59
root -0.924157 16.5597 -14.7841 5.79814 -3.1896 4.06187
lowerback 25.1671 0.669693 -2.32017
upperback 5.09723 0.355055 1.00122
thorax -8.36144 0.22739 2.32821
lowerneck -22.2091 1.62335 -0.932334
upperneck 9.97797 3.31794 -5.51489
head 6.72535 1.0426 -1.26077
rclavicle 1.03368e-014 3.97569e-015
rhumerus -37.2907 12.1409 -77.3505
rradius 76.2956
rwrist -5.20187
rhand -37.2233 1.94538
rfingers 7.12502
rthumb -10.2901 -27.7829
lclavicle 1.03368e-014 3.97569e-015
lhumerus -22.5788 -14.5446 84.3475
lradius 116.1
lwrist 8.9811
lhand -20.368 -5.73623
lfingers 7.12502
lthumb 5.98458 24.1593
rfemur -55.4783 -9.99846 17.3571
rtibia 67.9331
rfoot -19.6251 1.7816
rtoes -23.2779
lfemur -30.2535 3.25137 -24.2155
ltibia 80.2387
lfoot -3.9184 -13.4336
ltoes -17.7097
60
root -0.905597 16.5758 -14.3135 6.01792 -3.41759 3.91211
lowerback 26.0769 0.630038 -1.95821
upperback 5.65849 0.375696 0.964534
thorax -8.1979 0.219778 2.07391
lowerneck -21.9366 1.52447 -1.01946
upperneck 10.0394 3.21047 -5.53741
head 6.69892 0.988221 -1.26772
rclavicle -1.19271e-015 6.36111e-015
rhumerus -34.4977 12.545 -76.3899
rradius 75.9819
rwrist -6.09318
rhand -37.6601 1.02408
rfingers 7.12502
rthumb -10.7114 -28.6829
lclavicle -1.19271e-015 6.36111e-015
lhumerus -21.8195 -13.4941 82.2243
lradius 117.81
lwrist 6.62749
lhand -21.3989 -5.88678
lfingers 7.12502
lthumb 4.98923 24.0345
rfemur -56.4784 -9.79112 18.2832
rtibia 63.4837
rfoot -17.5734 1.87139
rtoes -24.1768
lfemur -31.5726 3.33934 -23.6934
ltibia 82.4088
lfoot -4.84516 -14.1465
ltoes -16.9788
61
root -0.881149 16.602 -13.8406 5.9881 -3.5516 3.71252
lowerback 27.2515 0.531505 -1.49174
upperback 6.31594 0.357356 0.997855
thorax -8.04849 0.193661 1.84984
lowerneck -21.7062 1.43601 -1.24256
upperneck 10.0758 3.16009 -5.58978
head 6.67143 0.952826 -1.25562
rclavicle 8.34896e-015 7.15625e-015
rhumerus -31.5239 13.0184 -75.2006
rradius 75.6448
rwrist -6.86137
rhand -38.2013 0.324887
rfingers 7.12502
rthumb -11.2334 -29.3543
lclavicle 8.34896e-015 7.15625e-015
lhumerus -21.2073 -12.0652 80.1905
lradius 119.272
lwrist 5.6212
lhand -22.6499 -5.92939
lfingers 7.12502
lthumb 3.78121 24.0168
rfemur -56.7981 -9.66979 19.0459
rtibia 59.2359
rfoot -14.996 1.81355
rtoes -24.6127
lfemur -32.8235 3.58293 -23.1972
ltibia 84.3746
lfoot -5.23399 -13.0938
ltoes -15.7538
